<svg id="Vrstva_1" data-name="Vrstva 1" xmlns="http://www.w3.org/2000/svg" version="1.1" viewBox="0 0 138.9 32.9">
    <defs>
        <style>
            .cls-1 {
            fill: #000;
            }

            .cls-1, .cls-2 {
            stroke-width: 0px;
            }

            .cls-2 {
            fill: #0050e5;
            }
        </style>
    </defs>
    <g>
        <path class="cls-1" d="M37.4,7h4.4v18.7h-4.4V7Z"></path>
        <path class="cls-1" d="M45.5,7h4.5l6.6,11V7h4.3v18.7h-4.1l-7-11.6v11.6h-4.3V7Z"></path>
        <path class="cls-1" d="M64.1,22v-2.5h4.4v1.9c0,.4.1.5.5.5h4.2c.4,0,.5-.1.5-.5v-1.9c0-.4-.2-.6-.7-.7l-5-1.2c-2.5-.6-3.8-1.3-3.8-3.8v-3.1c0-2.5,1.2-3.7,3.7-3.7h6.3c2.5,0,3.7,1.2,3.7,3.7v2.2h-4.4v-1.7c0-.4-.1-.5-.5-.5h-3.8c-.4,0-.5.1-.5.5v1.7c0,.4.2.6.7.7l5,1.2c2.5.6,3.8,1.3,3.8,3.8v3.3c0,2.5-1.2,3.7-3.7,3.7h-6.7c-2.5,0-3.7-1.2-3.7-3.7Z"></path>
        <path class="cls-1" d="M81.3,7h4.4v18.7h-4.4V7Z"></path>
        <path class="cls-1" d="M89.2,22v-11.3c0-2.5,1.2-3.7,3.7-3.7h6.9c2.5,0,3.7,1.2,3.7,3.7v2.5h-4.4v-1.8c0-.4-.1-.5-.5-.5h-4.4c-.4,0-.5.1-.5.5v10c0,.4.1.5.5.5h4.4c.4,0,.5-.1.5-.5v-2.6h-3.1v-3.7h7.6v6.9c0,2.5-1.2,3.7-3.7,3.7h-6.9c-2.5,0-3.7-1.2-3.7-3.7Z"></path>
        <path class="cls-1" d="M106.7,7h4.4v7.2h6v-7.2h4.4v18.7h-4.4v-7.6h-6v7.6h-4.4V7Z"></path>
        <path class="cls-1" d="M128.9,10.9h-4.9v-3.9h14.2v3.9h-4.9v14.8h-4.4v-14.8Z"></path>
    </g>
    <path class="cls-2" d="M0,0v32.9h30.4V0H0ZM7,9.3v-2.4h2.3s2.3,0,2.3,0v4.6h-4.7v-2.2ZM23.4,25.7h-4.7v-9.3l-9.3,9.3h-2.3v-4.7l14-14h2.3v18.7Z"></path>
</svg>